<?xml version="1.0" encoding="utf-8"?>
<!-- Generator: Adobe Illustrator 26.3.1, SVG Export Plug-In . SVG Version: 6.00 Build 0)  -->
<svg fill="#FFFFFF" version="1.1" id="Layer_1" xmlns="http://www.w3.org/2000/svg" xmlns:xlink="http://www.w3.org/1999/xlink"
	 viewBox="0 0 512 512" style="enable-background:new 0 0 512 512;" xml:space="preserve">
<g>
	<path d="M426.6,128h-42.7v21.3c0,23.5-19.1,42.7-42.7,42.7c-23.5,0-42.7-19.1-42.7-42.7V128h-85.3v21.3c0,23.5-19.1,42.7-42.7,42.7
		c-23.5,0-42.7-19.1-42.7-42.7V128H85.3C85.3,341.3,64,512,64,512h384C447.9,512,426.6,341.3,426.6,128z M170.6,170.7
		c11.8,0,21.3-9.5,21.3-21.3v-42.7c0-35.4,28.6-64,64-64s64,28.6,64,64v42.7c0,11.8,9.5,21.3,21.3,21.3s21.3-9.5,21.3-21.3v-42.7
		C362.6,47.8,314.8,0,255.9,0S149.2,47.8,149.2,106.7v42.7C149.3,161.1,158.8,170.7,170.6,170.7z"/>
</g>
</svg>
